<svg xmlns="http://www.w3.org/2000/svg" xmlns:xlink="http://www.w3.org/1999/xlink" width="200" zoomAndPan="magnify" viewBox="0 0 150 149.999998" height="200" preserveAspectRatio="xMidYMid meet" version="1.0"><defs><clipPath id="id1"><path d="M 15 15 L 135 15 L 135 135 L 15 135 Z M 15 15 " clip-rule="nonzero"/></clipPath></defs><g clip-path="url(#id1)"><path fill="#1a4789" d="M 135.003906 75 C 135.003906 76.964844 134.910156 78.925781 134.714844 80.882812 C 134.523438 82.839844 134.234375 84.78125 133.851562 86.707031 C 133.46875 88.632812 132.992188 90.539062 132.421875 92.417969 C 131.851562 94.300781 131.191406 96.148438 130.4375 97.960938 C 129.6875 99.777344 128.847656 101.550781 127.921875 103.285156 C 126.996094 105.019531 125.984375 106.703125 124.894531 108.335938 C 123.800781 109.96875 122.632812 111.546875 121.386719 113.066406 C 120.140625 114.585938 118.820312 116.039062 117.433594 117.429688 C 116.042969 118.816406 114.589844 120.136719 113.070312 121.382812 C 111.550781 122.628906 109.972656 123.796875 108.339844 124.890625 C 106.707031 125.980469 105.023438 126.992188 103.289062 127.917969 C 101.554688 128.84375 99.78125 129.683594 97.964844 130.433594 C 96.152344 131.1875 94.304688 131.847656 92.421875 132.417969 C 90.542969 132.988281 88.636719 133.464844 86.710938 133.847656 C 84.785156 134.234375 82.84375 134.519531 80.886719 134.714844 C 78.929688 134.90625 76.96875 135.003906 75.003906 135.003906 C 73.039062 135.003906 71.078125 134.90625 69.125 134.714844 C 67.167969 134.519531 65.226562 134.234375 63.300781 133.847656 C 61.371094 133.464844 59.46875 132.988281 57.589844 132.417969 C 55.707031 131.847656 53.859375 131.1875 52.042969 130.433594 C 50.226562 129.683594 48.453125 128.84375 46.722656 127.917969 C 44.988281 126.992188 43.304688 125.980469 41.671875 124.890625 C 40.035156 123.796875 38.460938 122.628906 36.941406 121.382812 C 35.421875 120.136719 33.96875 118.816406 32.578125 117.429688 C 31.1875 116.039062 29.871094 114.585938 28.625 113.066406 C 27.378906 111.546875 26.207031 109.96875 25.117188 108.335938 C 24.023438 106.703125 23.015625 105.019531 22.089844 103.285156 C 21.164062 101.550781 20.324219 99.777344 19.570312 97.960938 C 18.820312 96.148438 18.160156 94.300781 17.589844 92.417969 C 17.019531 90.539062 16.539062 88.632812 16.15625 86.707031 C 15.773438 84.78125 15.484375 82.839844 15.292969 80.882812 C 15.101562 78.925781 15.003906 76.964844 15.003906 75 C 15.003906 73.035156 15.101562 71.074219 15.292969 69.121094 C 15.484375 67.164062 15.773438 65.222656 16.15625 63.296875 C 16.539062 61.367188 17.019531 59.464844 17.589844 57.585938 C 18.160156 55.703125 18.820312 53.855469 19.570312 52.039062 C 20.324219 50.226562 21.164062 48.449219 22.089844 46.71875 C 23.015625 44.984375 24.023438 43.300781 25.117188 41.667969 C 26.207031 40.03125 27.378906 38.457031 28.625 36.9375 C 29.871094 35.417969 31.1875 33.964844 32.578125 32.574219 C 33.96875 31.183594 35.421875 29.867188 36.941406 28.621094 C 38.460938 27.375 40.035156 26.203125 41.671875 25.113281 C 43.304688 24.019531 44.988281 23.011719 46.722656 22.085938 C 48.453125 21.160156 50.226562 20.320312 52.042969 19.566406 C 53.859375 18.816406 55.707031 18.15625 57.589844 17.585938 C 59.46875 17.015625 61.371094 16.539062 63.300781 16.152344 C 65.226562 15.769531 67.167969 15.484375 69.125 15.289062 C 71.078125 15.097656 73.039062 15 75.003906 15 C 76.96875 15 78.929688 15.097656 80.886719 15.289062 C 82.84375 15.484375 84.785156 15.769531 86.710938 16.152344 C 88.636719 16.539062 90.542969 17.015625 92.421875 17.585938 C 94.304688 18.15625 96.152344 18.816406 97.964844 19.566406 C 99.78125 20.320312 101.554688 21.160156 103.289062 22.085938 C 105.023438 23.011719 106.707031 24.019531 108.339844 25.113281 C 109.972656 26.203125 111.550781 27.375 113.070312 28.621094 C 114.589844 29.867188 116.042969 31.183594 117.433594 32.574219 C 118.820312 33.964844 120.140625 35.417969 121.386719 36.9375 C 122.632812 38.457031 123.800781 40.03125 124.894531 41.667969 C 125.984375 43.300781 126.996094 44.984375 127.921875 46.71875 C 128.847656 48.449219 129.6875 50.226562 130.4375 52.039062 C 131.191406 53.855469 131.851562 55.703125 132.421875 57.585938 C 132.992188 59.464844 133.46875 61.367188 133.851562 63.296875 C 134.234375 65.222656 134.523438 67.164062 134.71875 69.121094 C 134.910156 71.074219 135.003906 73.035156 135.003906 75 Z M 135.003906 75 " fill-opacity="1" fill-rule="nonzero"/></g><path fill="#ffffff" d="M 90.066406 78.089844 L 91.761719 64.933594 L 78.734375 64.933594 L 78.734375 56.535156 C 78.734375 52.726562 79.796875 50.132812 85.257812 50.132812 L 92.21875 50.128906 L 92.21875 38.363281 C 91.015625 38.203125 86.886719 37.84375 82.070312 37.84375 C 72.027344 37.84375 65.15625 43.976562 65.15625 55.234375 L 65.15625 64.933594 L 53.796875 64.933594 L 53.796875 78.089844 L 65.15625 78.089844 L 65.15625 111.835938 L 78.734375 111.835938 L 78.734375 78.089844 Z M 90.066406 78.089844 " fill-opacity="1" fill-rule="nonzero"/></svg>