<svg xmlns="http://www.w3.org/2000/svg" xmlns:xlink="http://www.w3.org/1999/xlink" width="200" zoomAndPan="magnify" viewBox="0 0 150 149.999998" height="200" preserveAspectRatio="xMidYMid meet" version="1.0"><defs><clipPath id="id1"><path d="M 34.84375 34.84375 L 115.09375 34.84375 L 115.09375 115.09375 L 34.84375 115.09375 Z M 34.84375 34.84375 " clip-rule="nonzero"/></clipPath></defs><path fill="#bc3081" d="M 75 15 C 41.863281 15 15 41.863281 15 75 C 15 108.136719 41.863281 135 75 135 C 108.136719 135 135 108.136719 135 75 C 135 41.863281 108.136719 15 75 15 " fill-opacity="1" fill-rule="nonzero"/><g clip-path="url(#id1)"><path fill="#ffffff" d="M 57.136719 34.84375 C 44.824219 34.84375 34.84375 44.824219 34.84375 57.136719 L 34.84375 92.800781 C 34.84375 105.113281 44.824219 115.09375 57.136719 115.09375 L 92.800781 115.09375 C 105.113281 115.09375 115.09375 105.113281 115.09375 92.800781 L 115.09375 57.136719 C 115.09375 44.824219 105.113281 34.84375 92.800781 34.84375 Z M 101.71875 43.761719 C 104.179688 43.761719 106.175781 45.757812 106.175781 48.21875 C 106.175781 50.679688 104.179688 52.675781 101.71875 52.675781 C 99.257812 52.675781 97.261719 50.679688 97.261719 48.21875 C 97.261719 45.757812 99.257812 43.761719 101.71875 43.761719 Z M 74.96875 52.675781 C 87.277344 52.675781 97.261719 62.660156 97.261719 74.96875 C 97.261719 87.277344 87.277344 97.261719 74.96875 97.261719 C 62.660156 97.261719 52.675781 87.277344 52.675781 74.96875 C 52.675781 62.660156 62.660156 52.675781 74.96875 52.675781 Z M 74.96875 61.59375 C 74.089844 61.59375 73.222656 61.679688 72.359375 61.851562 C 71.5 62.023438 70.660156 62.277344 69.851562 62.613281 C 69.039062 62.949219 68.269531 63.359375 67.539062 63.847656 C 66.808594 64.335938 66.132812 64.890625 65.511719 65.511719 C 64.890625 66.132812 64.335938 66.808594 63.847656 67.539062 C 63.359375 68.269531 62.949219 69.039062 62.613281 69.851562 C 62.277344 70.660156 62.023438 71.5 61.851562 72.359375 C 61.679688 73.222656 61.59375 74.089844 61.59375 74.96875 C 61.59375 75.847656 61.679688 76.714844 61.851562 77.578125 C 62.023438 78.4375 62.277344 79.277344 62.613281 80.085938 C 62.949219 80.898438 63.359375 81.667969 63.847656 82.398438 C 64.335938 83.128906 64.890625 83.804688 65.511719 84.425781 C 66.132812 85.046875 66.808594 85.601562 67.539062 86.089844 C 68.269531 86.578125 69.039062 86.988281 69.851562 87.324219 C 70.660156 87.660156 71.5 87.914062 72.359375 88.085938 C 73.222656 88.257812 74.089844 88.34375 74.96875 88.34375 C 75.847656 88.34375 76.714844 88.257812 77.578125 88.085938 C 78.4375 87.914062 79.277344 87.660156 80.085938 87.324219 C 80.898438 86.988281 81.667969 86.578125 82.398438 86.089844 C 83.128906 85.601562 83.804688 85.046875 84.425781 84.425781 C 85.046875 83.804688 85.601562 83.128906 86.089844 82.398438 C 86.578125 81.667969 86.988281 80.898438 87.324219 80.085938 C 87.660156 79.277344 87.914062 78.4375 88.085938 77.578125 C 88.257812 76.714844 88.34375 75.847656 88.34375 74.96875 C 88.34375 74.089844 88.257812 73.222656 88.085938 72.359375 C 87.914062 71.5 87.660156 70.660156 87.324219 69.851562 C 86.988281 69.039062 86.578125 68.269531 86.089844 67.539062 C 85.601562 66.808594 85.046875 66.132812 84.425781 65.511719 C 83.804688 64.890625 83.128906 64.335938 82.398438 63.847656 C 81.667969 63.359375 80.898438 62.949219 80.085938 62.613281 C 79.277344 62.277344 78.4375 62.023438 77.578125 61.851562 C 76.714844 61.679688 75.847656 61.59375 74.96875 61.59375 Z M 74.96875 61.59375 " fill-opacity="1" fill-rule="nonzero"/></g></svg>