<svg xmlns="http://www.w3.org/2000/svg" xmlns:xlink="http://www.w3.org/1999/xlink" width="200" zoomAndPan="magnify" viewBox="0 0 150 149.999998" height="200" preserveAspectRatio="xMidYMid meet" version="1.0"><defs><clipPath id="id1"><path d="M 18.75 15 L 134 15 L 134 130 L 18.75 130 Z M 18.75 15 " clip-rule="nonzero"/></clipPath></defs><g clip-path="url(#id1)"><path fill="#d42428" d="M 18.75 72.210938 C 18.75 40.617188 44.367188 15 75.960938 15 C 107.550781 15 133.167969 40.617188 133.167969 72.210938 C 133.167969 103.800781 107.550781 129.417969 75.960938 129.417969 C 44.367188 129.417969 18.75 103.800781 18.75 72.210938 Z M 18.75 72.210938 " fill-opacity="1" fill-rule="nonzero"/></g><path fill="#cc202d" d="M 116.40625 31.765625 C 138.75 54.109375 138.75 90.335938 116.40625 112.65625 C 94.0625 135 57.835938 135 35.515625 112.65625 Z M 116.40625 31.765625 " fill-opacity="1" fill-rule="nonzero"/><path fill="#ba202e" d="M 132.015625 83.671875 L 103.699219 55.355469 L 70.308594 59.160156 L 50.109375 90.425781 L 87.859375 128.175781 C 110.042969 123.46875 127.496094 105.921875 132.015625 83.671875 " fill-opacity="1" fill-rule="nonzero"/><path fill="#ffffff" d="M 105.890625 61.164062 C 105.890625 56.367188 102.015625 52.496094 97.21875 52.496094 L 56.496094 52.496094 C 51.703125 52.496094 47.828125 56.390625 47.828125 61.164062 L 47.828125 84.453125 C 47.828125 89.25 51.703125 93.148438 56.496094 93.148438 L 97.199219 93.148438 C 101.992188 93.148438 105.867188 89.25 105.867188 84.453125 L 105.867188 61.164062 Z M 71.046875 82.632812 L 71.046875 60.773438 L 87.628906 71.703125 Z M 71.046875 82.632812 " fill-opacity="1" fill-rule="evenodd"/></svg>